<?xml version="1.0" encoding="utf-8"?>
<!-- Generator: Adobe Illustrator 24.3.0, SVG Export Plug-In . SVG Version: 6.00 Build 0)  -->
<svg version="1.1" id="C3" xmlns="http://www.w3.org/2000/svg" xmlns:xlink="http://www.w3.org/1999/xlink" x="0px" y="0px"
	 viewBox="0 0 172 114.3" style="enable-background:new 0 0 172 114.3;" xml:space="preserve">
<style type="text/css">
	.st0{stroke:#000000;}
	.st1{font-family:'Helvetica';}
	.st2{font-size:7.7953px;}
</style>
<g>
	<path class="st0" d="M14.5,3.8v106 M17.5,3.8v106"/>
</g>
<g>
	<path class="st0" d="M22.1,3.8v96.4 M26.6,3.8v96.4 M28.2,3.8v96.4"/>
</g>
<g>
	<path class="st0" d="M31.2,3.8v96.4 M32.7,3.8v96.4 M34.2,3.8v96.4 M35.8,3.8v96.4 M38.8,3.8v96.4"/>
</g>
<g>
	<path class="st0" d="M43.4,3.8v96.4 M44.9,3.8v96.4 M46.4,3.8v96.4 M49.5,3.8v96.4"/>
</g>
<g>
	<path class="st0" d="M52.5,3.8v96.4 M54,3.8v96.4 M60.1,3.8v96.4"/>
</g>
<g>
	<path class="st0" d="M67.7,3.8v96.4 M70.8,3.8v96.4"/>
</g>
<g>
	<path class="st0" d="M75.3,3.8v96.4 M81.4,3.8v96.4"/>
</g>
<g>
	<path class="st0" d="M84.5,3.8v106 M87.5,3.8v106"/>
</g>
<g>
	<path class="st0" d="M90.5,3.8v96.4 M95.1,3.8v96.4"/>
</g>
<g>
	<path class="st0" d="M101.2,3.8v96.4 M102.7,3.8v96.4 M104.2,3.8v96.4 M107.3,3.8v96.4"/>
</g>
<g>
	<path class="st0" d="M111.9,3.8v96.4 M113.4,3.8v96.4 M114.9,3.8v96.4 M119.5,3.8v96.4"/>
</g>
<g>
	<path class="st0" d="M122.5,3.8v96.4 M124,3.8v96.4 M128.6,3.8v96.4 M130.1,3.8v96.4"/>
</g>
<g>
	<path class="st0" d="M133.2,3.8v96.4 M134.7,3.8v96.4 M137.7,3.8v96.4 M139.2,3.8v96.4"/>
</g>
<g>
	<path class="st0" d="M143.8,3.8v96.4 M151.4,3.8v96.4"/>
</g>
<g>
	<path class="st0" d="M154.5,3.8v106 M157.5,3.8v106"/>
</g>
<text transform="matrix(1 0 0 1 3.4394 110.5511)" class="st1 st2">1</text>
<text transform="matrix(1 0 0 1 20.6362 110.5511)" class="st1 st2">234567</text>
<text transform="matrix(1 0 0 1 91.1433 110.5511)" class="st1 st2">890123</text>
<text transform="matrix(1 0 0 1 159.9307 110.5511)" class="st1 st2">&gt;</text>
</svg>
