<?xml version="1.0" encoding="utf-8" standalone="yes"?>
<!DOCTYPE svg PUBLIC "-//W3C//DTD SVG 1.1//EN" "http://www.w3.org/Graphics/SVG/1.1/DTD/svg11.dtd">
<svg xmlns:xlink="http://www.w3.org/1999/xlink" viewBox="0 0 118 107" class="barcode-canvas" version="1.1" style="shape-rendering:crispEdges;" xmlns="http://www.w3.org/2000/svg">
  <g text-rendering="geometricPrecision">
    <rect x="0" y="0" width="118" height="107" fill="#ffffff" />
    <rect x="12" y="7" width="1" height="86" fill="#000000" />
    <rect x="14" y="7" width="1" height="86" fill="#000000" />
    <rect x="17" y="7" width="1" height="86" fill="#000000" />
    <rect x="20" y="7" width="2" height="86" fill="#000000" />
    <rect x="23" y="7" width="3" height="86" fill="#000000" />
    <rect x="27" y="7" width="2" height="86" fill="#000000" />
    <rect x="30" y="7" width="4" height="86" fill="#000000" />
    <rect x="35" y="7" width="1" height="86" fill="#000000" />
    <rect x="37" y="7" width="2" height="86" fill="#000000" />
    <rect x="42" y="7" width="1" height="86" fill="#000000" />
    <rect x="44" y="7" width="2" height="86" fill="#000000" />
    <rect x="49" y="7" width="1" height="86" fill="#000000" />
    <rect x="51" y="7" width="1" height="86" fill="#000000" />
    <rect x="55" y="7" width="2" height="86" fill="#000000" />
    <rect x="58" y="7" width="1" height="86" fill="#000000" />
    <rect x="60" y="7" width="1" height="86" fill="#000000" />
    <rect x="62" y="7" width="3" height="86" fill="#000000" />
    <rect x="67" y="7" width="1" height="86" fill="#000000" />
    <rect x="69" y="7" width="2" height="86" fill="#000000" />
    <rect x="72" y="7" width="2" height="86" fill="#000000" />
    <rect x="76" y="7" width="1" height="86" fill="#000000" />
    <rect x="81" y="7" width="1" height="86" fill="#000000" />
    <rect x="83" y="7" width="1" height="86" fill="#000000" />
    <rect x="86" y="7" width="1" height="86" fill="#000000" />
    <rect x="90" y="7" width="2" height="86" fill="#000000" />
    <rect x="94" y="7" width="2" height="86" fill="#000000" />
    <rect x="97" y="7" width="2" height="86" fill="#000000" />
    <rect x="100" y="7" width="2" height="86" fill="#000000" />
    <rect x="104" y="7" width="1" height="86" fill="#000000" />
    <rect x="106" y="7" width="1" height="86" fill="#000000" />
    <rect x="7" y="90" width="5" height="11" fill="#ffffff" />
    <g transform="translate(6, 90)">
      <path d="M 0.453 9 L 0.453 8.422 C 0.598 8.102 0.781 7.82 1 7.578 C 1.219 7.328 1.441 7.105 1.672 6.906 C 1.91 6.711 2.145 6.527 2.375 6.359 C 2.613 6.184 2.828 6.012 3.016 5.844 C 3.203 5.68 3.352 5.5 3.469 5.312 C 3.582 5.125 3.641 4.914 3.641 4.672 C 3.641 4.508 3.613 4.367 3.562 4.25 C 3.508 4.125 3.43 4.023 3.328 3.938 C 3.234 3.844 3.113 3.777 2.969 3.734 C 2.832 3.695 2.68 3.672 2.516 3.672 C 2.359 3.672 2.207 3.695 2.062 3.734 C 1.926 3.777 1.801 3.84 1.688 3.922 C 1.582 4.008 1.492 4.109 1.422 4.234 C 1.359 4.352 1.316 4.492 1.297 4.656 L 0.484 4.578 C 0.516 4.359 0.578 4.156 0.672 3.969 C 0.766 3.773 0.895 3.605 1.062 3.469 C 1.238 3.324 1.445 3.211 1.688 3.125 C 1.926 3.043 2.203 3 2.516 3 C 2.816 3 3.086 3.039 3.328 3.109 C 3.578 3.172 3.781 3.273 3.938 3.406 C 4.102 3.543 4.227 3.715 4.312 3.922 C 4.406 4.121 4.453 4.352 4.453 4.609 C 4.453 4.809 4.414 4.996 4.344 5.172 C 4.27 5.352 4.172 5.516 4.047 5.672 C 3.922 5.828 3.773 5.984 3.609 6.141 C 3.441 6.289 3.27 6.434 3.094 6.578 C 2.914 6.727 2.734 6.867 2.547 7 C 2.367 7.137 2.203 7.277 2.047 7.422 C 1.891 7.57 1.742 7.715 1.609 7.859 C 1.484 7.996 1.391 8.148 1.328 8.312 L 4.547 8.312 L 4.547 9 Z M 5 9 " fill="#000000" shape-rendering="geometricPrecision" />
    </g>
    <rect x="22" y="90" width="35" height="11" fill="#ffffff" />
    <rect x="61" y="90" width="36" height="11" fill="#ffffff" />
    <g transform="translate(27, 90)">
      <path d="M 4.547 3.656 C 4.242 4.117 3.961 4.559 3.703 4.984 C 3.441 5.402 3.219 5.824 3.031 6.25 C 2.844 6.68 2.695 7.121 2.594 7.578 C 2.488 8.027 2.438 8.5 2.438 9 L 1.609 9 C 1.609 8.523 1.664 8.059 1.781 7.609 C 1.895 7.152 2.051 6.703 2.25 6.266 C 2.445 5.82 2.676 5.383 2.938 4.953 C 3.207 4.527 3.488 4.105 3.781 3.688 L 0.469 3.688 L 0.469 3 L 4.547 3 Z M 9.609 7.047 C 9.609 7.359 9.562 7.637 9.469 7.875 C 9.375 8.117 9.238 8.32 9.062 8.484 C 8.883 8.652 8.664 8.781 8.406 8.875 C 8.145 8.961 7.848 9 7.516 9 C 7.129 9 6.801 8.949 6.531 8.844 C 6.27 8.742 6.055 8.605 5.891 8.438 C 5.723 8.273 5.594 8.078 5.5 7.859 C 5.414 7.641 5.363 7.418 5.344 7.188 L 6.156 7.109 C 6.188 7.289 6.234 7.453 6.297 7.609 C 6.359 7.758 6.441 7.883 6.547 7.984 C 6.648 8.09 6.781 8.172 6.938 8.234 C 7.102 8.297 7.297 8.328 7.516 8.328 C 7.91 8.328 8.219 8.219 8.438 8 C 8.664 7.781 8.781 7.461 8.781 7.031 C 8.781 6.781 8.727 6.578 8.625 6.422 C 8.531 6.266 8.406 6.148 8.25 6.062 C 8.102 5.98 7.941 5.922 7.766 5.891 C 7.586 5.859 7.426 5.844 7.281 5.844 L 6.828 5.844 L 6.828 5.156 L 7.266 5.156 C 7.41 5.156 7.562 5.148 7.719 5.125 C 7.883 5.105 8.031 5.07 8.156 5.016 C 8.289 4.953 8.398 4.875 8.484 4.781 C 8.578 4.688 8.625 4.57 8.625 4.422 C 8.625 4.195 8.523 4.012 8.328 3.875 C 8.141 3.742 7.852 3.672 7.469 3.672 C 7.113 3.672 6.828 3.734 6.609 3.859 C 6.398 3.984 6.281 4.156 6.25 4.375 L 5.453 4.344 C 5.484 4.117 5.555 3.918 5.672 3.75 C 5.785 3.586 5.93 3.449 6.109 3.344 C 6.297 3.23 6.504 3.148 6.734 3.094 C 6.961 3.031 7.207 3 7.469 3 C 7.82 3 8.117 3.039 8.359 3.109 C 8.609 3.172 8.812 3.262 8.969 3.375 C 9.133 3.492 9.254 3.633 9.328 3.797 C 9.398 3.953 9.438 4.121 9.438 4.297 C 9.438 4.445 9.41 4.578 9.359 4.703 C 9.316 4.828 9.238 4.945 9.125 5.047 C 9.02 5.141 8.883 5.227 8.719 5.297 C 8.562 5.371 8.367 5.43 8.141 5.469 L 8.141 5.484 C 8.391 5.516 8.602 5.578 8.781 5.672 C 8.969 5.766 9.125 5.887 9.25 6.031 C 9.375 6.168 9.461 6.324 9.516 6.5 C 9.578 6.68 9.609 6.859 9.609 7.047 Z M 14.625 7 C 14.625 7.305 14.578 7.578 14.484 7.828 C 14.391 8.07 14.25 8.277 14.062 8.453 C 13.883 8.621 13.656 8.758 13.375 8.859 C 13.102 8.953 12.789 9 12.438 9 C 12.102 9 11.816 8.965 11.578 8.891 C 11.336 8.82 11.133 8.719 10.969 8.594 C 10.801 8.461 10.664 8.309 10.562 8.141 C 10.469 7.965 10.398 7.777 10.359 7.578 L 11.156 7.469 C 11.188 7.586 11.234 7.695 11.297 7.797 C 11.359 7.902 11.438 7.996 11.531 8.078 C 11.633 8.152 11.758 8.215 11.906 8.266 C 12.051 8.309 12.234 8.328 12.453 8.328 C 12.648 8.328 12.832 8.305 13 8.25 C 13.164 8.188 13.305 8.102 13.422 7.984 C 13.547 7.871 13.641 7.734 13.703 7.578 C 13.773 7.414 13.812 7.227 13.812 7.016 C 13.812 6.84 13.781 6.68 13.719 6.531 C 13.656 6.387 13.566 6.262 13.453 6.156 C 13.336 6.055 13.195 5.977 13.031 5.922 C 12.863 5.859 12.676 5.828 12.469 5.828 C 12.332 5.828 12.207 5.84 12.094 5.859 C 11.988 5.883 11.883 5.914 11.781 5.953 C 11.688 5.984 11.602 6.027 11.531 6.078 C 11.457 6.133 11.383 6.184 11.312 6.234 L 10.547 6.234 L 10.75 3 L 14.266 3 L 14.266 3.688 L 11.469 3.688 L 11.344 5.578 C 11.488 5.465 11.664 5.371 11.875 5.297 C 12.082 5.215 12.332 5.172 12.625 5.172 C 12.938 5.172 13.211 5.219 13.453 5.312 C 13.703 5.398 13.91 5.523 14.078 5.688 C 14.254 5.855 14.391 6.055 14.484 6.281 C 14.578 6.5 14.625 6.742 14.625 7 Z M 19.625 7 C 19.625 7.305 19.578 7.578 19.484 7.828 C 19.391 8.07 19.25 8.277 19.062 8.453 C 18.883 8.621 18.656 8.758 18.375 8.859 C 18.102 8.953 17.789 9 17.438 9 C 17.102 9 16.816 8.965 16.578 8.891 C 16.336 8.82 16.133 8.719 15.969 8.594 C 15.801 8.461 15.664 8.309 15.562 8.141 C 15.469 7.965 15.398 7.777 15.359 7.578 L 16.156 7.469 C 16.188 7.586 16.234 7.695 16.297 7.797 C 16.359 7.902 16.438 7.996 16.531 8.078 C 16.633 8.152 16.758 8.215 16.906 8.266 C 17.051 8.309 17.234 8.328 17.453 8.328 C 17.648 8.328 17.832 8.305 18 8.25 C 18.164 8.188 18.305 8.102 18.422 7.984 C 18.547 7.871 18.641 7.734 18.703 7.578 C 18.773 7.414 18.812 7.227 18.812 7.016 C 18.812 6.84 18.781 6.68 18.719 6.531 C 18.656 6.387 18.566 6.262 18.453 6.156 C 18.336 6.055 18.195 5.977 18.031 5.922 C 17.863 5.859 17.676 5.828 17.469 5.828 C 17.332 5.828 17.207 5.84 17.094 5.859 C 16.988 5.883 16.883 5.914 16.781 5.953 C 16.688 5.984 16.602 6.027 16.531 6.078 C 16.457 6.133 16.383 6.184 16.312 6.234 L 15.547 6.234 L 15.75 3 L 19.266 3 L 19.266 3.688 L 16.469 3.688 L 16.344 5.578 C 16.488 5.465 16.664 5.371 16.875 5.297 C 17.082 5.215 17.332 5.172 17.625 5.172 C 17.938 5.172 18.211 5.219 18.453 5.312 C 18.703 5.398 18.91 5.523 19.078 5.688 C 19.254 5.855 19.391 6.055 19.484 6.281 C 19.578 6.5 19.625 6.742 19.625 7 Z M 23.875 7.812 L 23.875 9 L 23.125 9 L 23.125 7.812 L 20.203 7.812 L 20.203 7.203 L 23.047 3 L 23.875 3 L 23.875 7.188 L 24.734 7.188 L 24.734 7.812 Z M 23.125 3.891 C 23.113 3.902 23.098 3.934 23.078 3.984 C 23.055 4.027 23.031 4.074 23 4.125 C 22.969 4.18 22.938 4.234 22.906 4.297 C 22.875 4.352 22.848 4.391 22.828 4.422 L 21.25 6.797 C 21.227 6.82 21.203 6.852 21.172 6.891 C 21.148 6.934 21.125 6.977 21.094 7.016 C 21.062 7.059 21.031 7.102 21 7.141 C 20.977 7.172 20.957 7.188 20.938 7.188 L 23.125 7.188 Z M 25 9 " fill="#000000" shape-rendering="geometricPrecision" />
    </g>
    <g transform="translate(66, 90)">
      <path d="M 4.656 6 C 4.656 6.555 4.598 7.023 4.484 7.406 C 4.367 7.793 4.211 8.105 4.016 8.344 C 3.828 8.574 3.598 8.742 3.328 8.844 C 3.066 8.949 2.785 9 2.484 9 C 2.191 9 1.91 8.949 1.641 8.844 C 1.379 8.742 1.156 8.574 0.969 8.344 C 0.781 8.105 0.629 7.797 0.516 7.422 C 0.41 7.039 0.359 6.562 0.359 6 C 0.359 5.406 0.41 4.918 0.516 4.531 C 0.629 4.148 0.781 3.84 0.969 3.609 C 1.164 3.383 1.395 3.227 1.656 3.141 C 1.914 3.047 2.203 3 2.516 3 C 2.816 3 3.094 3.047 3.344 3.141 C 3.602 3.227 3.828 3.383 4.016 3.609 C 4.211 3.84 4.367 4.148 4.484 4.531 C 4.598 4.918 4.656 5.406 4.656 6 Z M 3.844 6 C 3.844 5.555 3.812 5.18 3.75 4.875 C 3.695 4.574 3.613 4.336 3.5 4.156 C 3.383 3.969 3.242 3.84 3.078 3.766 C 2.91 3.695 2.723 3.656 2.516 3.656 C 2.297 3.656 2.098 3.695 1.922 3.766 C 1.754 3.84 1.613 3.969 1.5 4.156 C 1.383 4.336 1.297 4.574 1.234 4.875 C 1.18 5.18 1.156 5.555 1.156 6 C 1.156 6.43 1.18 6.793 1.234 7.094 C 1.297 7.398 1.383 7.641 1.5 7.828 C 1.613 8.008 1.754 8.137 1.922 8.219 C 2.098 8.293 2.289 8.328 2.5 8.328 C 2.707 8.328 2.895 8.293 3.062 8.219 C 3.227 8.137 3.367 8.008 3.484 7.828 C 3.598 7.641 3.688 7.398 3.75 7.094 C 3.812 6.793 3.844 6.43 3.844 6 Z M 5.453 9 L 5.453 8.422 C 5.598 8.102 5.781 7.82 6 7.578 C 6.219 7.328 6.441 7.105 6.672 6.906 C 6.91 6.711 7.145 6.527 7.375 6.359 C 7.613 6.184 7.828 6.012 8.016 5.844 C 8.203 5.68 8.352 5.5 8.469 5.312 C 8.582 5.125 8.641 4.914 8.641 4.672 C 8.641 4.508 8.613 4.367 8.562 4.25 C 8.508 4.125 8.43 4.023 8.328 3.938 C 8.234 3.844 8.113 3.777 7.969 3.734 C 7.832 3.695 7.68 3.672 7.516 3.672 C 7.359 3.672 7.207 3.695 7.062 3.734 C 6.926 3.777 6.801 3.84 6.688 3.922 C 6.582 4.008 6.492 4.109 6.422 4.234 C 6.359 4.352 6.316 4.492 6.297 4.656 L 5.484 4.578 C 5.516 4.359 5.578 4.156 5.672 3.969 C 5.766 3.773 5.895 3.605 6.062 3.469 C 6.238 3.324 6.445 3.211 6.688 3.125 C 6.926 3.043 7.203 3 7.516 3 C 7.816 3 8.086 3.039 8.328 3.109 C 8.578 3.172 8.781 3.273 8.938 3.406 C 9.102 3.543 9.227 3.715 9.312 3.922 C 9.406 4.121 9.453 4.352 9.453 4.609 C 9.453 4.809 9.414 4.996 9.344 5.172 C 9.27 5.352 9.172 5.516 9.047 5.672 C 8.922 5.828 8.773 5.984 8.609 6.141 C 8.441 6.289 8.27 6.434 8.094 6.578 C 7.914 6.727 7.734 6.867 7.547 7 C 7.367 7.137 7.203 7.277 7.047 7.422 C 6.891 7.57 6.742 7.715 6.609 7.859 C 6.484 7.996 6.391 8.148 6.328 8.312 L 9.547 8.312 L 9.547 9 Z M 14.609 7.047 C 14.609 7.359 14.562 7.637 14.469 7.875 C 14.375 8.117 14.238 8.32 14.062 8.484 C 13.883 8.652 13.664 8.781 13.406 8.875 C 13.145 8.961 12.848 9 12.516 9 C 12.129 9 11.801 8.949 11.531 8.844 C 11.27 8.742 11.055 8.605 10.891 8.438 C 10.723 8.273 10.594 8.078 10.5 7.859 C 10.414 7.641 10.363 7.418 10.344 7.188 L 11.156 7.109 C 11.188 7.289 11.234 7.453 11.297 7.609 C 11.359 7.758 11.441 7.883 11.547 7.984 C 11.648 8.09 11.781 8.172 11.938 8.234 C 12.102 8.297 12.297 8.328 12.516 8.328 C 12.91 8.328 13.219 8.219 13.438 8 C 13.664 7.781 13.781 7.461 13.781 7.031 C 13.781 6.781 13.727 6.578 13.625 6.422 C 13.531 6.266 13.406 6.148 13.25 6.062 C 13.102 5.98 12.941 5.922 12.766 5.891 C 12.586 5.859 12.426 5.844 12.281 5.844 L 11.828 5.844 L 11.828 5.156 L 12.266 5.156 C 12.41 5.156 12.562 5.148 12.719 5.125 C 12.883 5.105 13.031 5.07 13.156 5.016 C 13.289 4.953 13.398 4.875 13.484 4.781 C 13.578 4.688 13.625 4.57 13.625 4.422 C 13.625 4.195 13.523 4.012 13.328 3.875 C 13.141 3.742 12.852 3.672 12.469 3.672 C 12.113 3.672 11.828 3.734 11.609 3.859 C 11.398 3.984 11.281 4.156 11.25 4.375 L 10.453 4.344 C 10.484 4.117 10.555 3.918 10.672 3.75 C 10.785 3.586 10.93 3.449 11.109 3.344 C 11.297 3.23 11.504 3.148 11.734 3.094 C 11.961 3.031 12.207 3 12.469 3 C 12.82 3 13.117 3.039 13.359 3.109 C 13.609 3.172 13.812 3.262 13.969 3.375 C 14.133 3.492 14.254 3.633 14.328 3.797 C 14.398 3.953 14.438 4.121 14.438 4.297 C 14.438 4.445 14.41 4.578 14.359 4.703 C 14.316 4.828 14.238 4.945 14.125 5.047 C 14.02 5.141 13.883 5.227 13.719 5.297 C 13.562 5.371 13.367 5.43 13.141 5.469 L 13.141 5.484 C 13.391 5.516 13.602 5.578 13.781 5.672 C 13.969 5.766 14.125 5.887 14.25 6.031 C 14.375 6.168 14.461 6.324 14.516 6.5 C 14.578 6.68 14.609 6.859 14.609 7.047 Z M 19.609 7.109 C 19.609 7.383 19.566 7.637 19.484 7.875 C 19.398 8.105 19.27 8.305 19.094 8.469 C 18.926 8.637 18.707 8.766 18.438 8.859 C 18.176 8.953 17.863 9 17.5 9 C 17.133 9 16.82 8.953 16.562 8.859 C 16.301 8.766 16.082 8.637 15.906 8.469 C 15.727 8.293 15.598 8.09 15.516 7.859 C 15.43 7.633 15.391 7.375 15.391 7.094 C 15.391 6.867 15.422 6.664 15.484 6.484 C 15.555 6.297 15.648 6.137 15.766 6 C 15.879 5.867 16.008 5.762 16.156 5.688 C 16.312 5.605 16.469 5.547 16.625 5.516 L 16.625 5.5 C 16.445 5.469 16.289 5.418 16.156 5.344 C 16.02 5.273 15.906 5.184 15.812 5.078 C 15.727 4.977 15.66 4.859 15.609 4.734 C 15.555 4.602 15.531 4.461 15.531 4.312 C 15.531 4.125 15.57 3.953 15.656 3.797 C 15.738 3.641 15.863 3.508 16.031 3.391 C 16.195 3.266 16.398 3.172 16.641 3.109 C 16.891 3.039 17.172 3 17.484 3 C 17.828 3 18.117 3.039 18.359 3.109 C 18.609 3.184 18.812 3.277 18.969 3.391 C 19.133 3.508 19.254 3.648 19.328 3.812 C 19.41 3.98 19.453 4.148 19.453 4.312 C 19.453 4.461 19.426 4.602 19.375 4.734 C 19.332 4.859 19.266 4.977 19.172 5.078 C 19.078 5.184 18.961 5.277 18.828 5.359 C 18.691 5.434 18.535 5.48 18.359 5.5 L 18.359 5.516 C 18.535 5.547 18.703 5.605 18.859 5.688 C 19.016 5.773 19.145 5.883 19.25 6.016 C 19.363 6.141 19.453 6.297 19.516 6.484 C 19.578 6.672 19.609 6.883 19.609 7.109 Z M 18.641 4.391 C 18.641 4.277 18.617 4.172 18.578 4.078 C 18.535 3.977 18.469 3.891 18.375 3.828 C 18.289 3.758 18.176 3.703 18.031 3.672 C 17.883 3.633 17.703 3.609 17.484 3.609 C 17.273 3.609 17.098 3.633 16.953 3.672 C 16.816 3.703 16.703 3.758 16.609 3.828 C 16.516 3.891 16.445 3.977 16.406 4.078 C 16.363 4.172 16.344 4.277 16.344 4.391 C 16.344 4.484 16.359 4.578 16.391 4.672 C 16.422 4.766 16.477 4.855 16.562 4.938 C 16.656 5.023 16.773 5.09 16.922 5.141 C 17.066 5.184 17.258 5.203 17.5 5.203 C 17.75 5.203 17.945 5.184 18.094 5.141 C 18.25 5.09 18.363 5.023 18.438 4.938 C 18.52 4.855 18.57 4.766 18.594 4.672 C 18.625 4.578 18.641 4.484 18.641 4.391 Z M 18.797 7.016 C 18.797 6.859 18.773 6.715 18.734 6.578 C 18.691 6.434 18.617 6.305 18.516 6.188 C 18.422 6.062 18.285 5.969 18.109 5.906 C 17.941 5.836 17.734 5.797 17.484 5.797 C 17.254 5.797 17.055 5.836 16.891 5.906 C 16.734 5.969 16.602 6.062 16.5 6.188 C 16.395 6.305 16.316 6.434 16.266 6.578 C 16.223 6.727 16.203 6.875 16.203 7.031 C 16.203 7.242 16.223 7.43 16.266 7.594 C 16.316 7.75 16.395 7.891 16.5 8.016 C 16.602 8.133 16.738 8.227 16.906 8.297 C 17.07 8.359 17.273 8.391 17.516 8.391 C 17.754 8.391 17.953 8.359 18.109 8.297 C 18.273 8.227 18.41 8.133 18.516 8.016 C 18.617 7.891 18.691 7.746 18.734 7.578 C 18.773 7.414 18.797 7.227 18.797 7.016 Z M 20.688 9 L 20.688 8.312 L 22.266 8.312 L 22.266 3.734 L 20.859 4.688 L 20.859 3.969 L 22.328 3 L 23.062 3 L 23.062 8.312 L 24.562 8.312 L 24.562 9 Z M 25 9 " fill="#000000" shape-rendering="geometricPrecision" />
    </g>
    <rect x="107" y="90" width="5" height="11" fill="#ffffff" />
    <g transform="translate(107, 90)">
      <path d="M 0.453 9 L 0.453 8.422 C 0.598 8.102 0.781 7.82 1 7.578 C 1.219 7.328 1.441 7.105 1.672 6.906 C 1.91 6.711 2.145 6.527 2.375 6.359 C 2.613 6.184 2.828 6.012 3.016 5.844 C 3.203 5.68 3.352 5.5 3.469 5.312 C 3.582 5.125 3.641 4.914 3.641 4.672 C 3.641 4.508 3.613 4.367 3.562 4.25 C 3.508 4.125 3.43 4.023 3.328 3.938 C 3.234 3.844 3.113 3.777 2.969 3.734 C 2.832 3.695 2.68 3.672 2.516 3.672 C 2.359 3.672 2.207 3.695 2.062 3.734 C 1.926 3.777 1.801 3.84 1.688 3.922 C 1.582 4.008 1.492 4.109 1.422 4.234 C 1.359 4.352 1.316 4.492 1.297 4.656 L 0.484 4.578 C 0.516 4.359 0.578 4.156 0.672 3.969 C 0.766 3.773 0.895 3.605 1.062 3.469 C 1.238 3.324 1.445 3.211 1.688 3.125 C 1.926 3.043 2.203 3 2.516 3 C 2.816 3 3.086 3.039 3.328 3.109 C 3.578 3.172 3.781 3.273 3.938 3.406 C 4.102 3.543 4.227 3.715 4.312 3.922 C 4.406 4.121 4.453 4.352 4.453 4.609 C 4.453 4.809 4.414 4.996 4.344 5.172 C 4.27 5.352 4.172 5.516 4.047 5.672 C 3.922 5.828 3.773 5.984 3.609 6.141 C 3.441 6.289 3.27 6.434 3.094 6.578 C 2.914 6.727 2.734 6.867 2.547 7 C 2.367 7.137 2.203 7.277 2.047 7.422 C 1.891 7.57 1.742 7.715 1.609 7.859 C 1.484 7.996 1.391 8.148 1.328 8.312 L 4.547 8.312 L 4.547 9 Z M 5 9 " fill="#000000" shape-rendering="geometricPrecision" />
    </g>
  </g>
</svg>